<svg width="337" height="407" viewBox="0 0 337 407" fill="none" xmlns="http://www.w3.org/2000/svg">
<path d="M214.744 96.3395C214.852 95.7956 215.236 95.348 215.757 95.1601C219.686 93.7433 223.705 92.5922 227.765 91.7196C227.958 91.6749 228.157 91.6283 228.417 91.5668C231.761 90.7755 232.916 90.5758 234.616 90.6817C237.017 90.8313 239.032 91.8611 240.731 93.9638C243.17 96.9865 244.785 101.006 245.607 105.505C246.08 108.159 245.571 111.948 244.23 114.096C242.73 116.533 240.291 118.696 236.769 121.053C236.14 121.474 235.483 121.897 234.725 122.373C234.428 122.56 234.125 122.749 233.748 122.982C233.615 123.064 232.989 123.452 232.819 123.557C231.412 124.428 230.226 125.219 227.895 126.818C227.64 126.993 227.64 126.993 227.385 127.168C223.845 129.594 221.98 130.795 219.658 132.045C215.952 133.94 212.446 136.202 209.192 138.799C208.043 139.715 206.377 138.7 206.662 137.257L214.744 96.3395Z" fill="#53E191"/>
<path d="M224.903 189.86C235.269 188.057 254.593 182.099 258.31 178.243C261.943 174.522 263.291 169.425 263.237 162.503C263.222 160.522 263.117 158.751 262.871 155.64L262.792 154.652C262.196 148.108 260.959 141.658 259.097 135.377C256.936 127.779 253.573 126.046 244.284 126.551C234.674 127.185 225.14 128.515 215.74 130.532C214.924 130.707 214.386 131.488 214.511 132.314L223.075 188.542C223.208 189.417 224.033 190.011 224.903 189.86Z" fill="#53E191"/>
<path d="M259.121 152.311C256.732 152.628 253.967 152.961 250.663 153.336C248.213 153.613 245.724 153.886 241.919 154.295C231.294 155.439 229.155 155.675 225.19 156.163C224.326 156.269 223.711 157.057 223.817 157.923C223.924 158.789 224.711 159.404 225.575 159.298C229.516 158.813 231.653 158.577 242.256 157.436C246.066 157.025 248.56 156.753 251.018 156.474C254.34 156.097 257.123 155.762 259.534 155.443C260.398 155.328 261.005 154.535 260.891 153.67C260.777 152.805 259.985 152.197 259.121 152.311Z" fill="#007D43"/>
<path d="M203.2 170.542C197.385 163.284 191.569 157.968 185.491 154.82C176.968 150.395 167.169 147.545 158.15 147.216C147.39 146.823 138.2 149.963 131.64 157.052C130.205 158.605 129.061 160.558 127.982 163.181L123.414 148.304C123.083 147.225 121.762 146.833 120.896 147.556C117.876 150.081 113.509 156.217 108.085 165.092C104.435 171.064 100.956 177.183 97.4446 183.597C96.5444 185.244 95.6194 187.086 94.667 189.12C92.3235 194.125 89.8617 200.177 87.1482 207.458C85.86 210.914 84.5638 214.512 83.0332 218.852C82.4004 220.646 80.0294 227.418 79.489 228.947C71.9072 250.405 67.3503 273.923 62.2945 311.271C61.3027 318.609 60.4963 329.504 59.8529 343.031C59.4193 352.147 59.0853 381.652 58.8381 391.416C58.7516 394.833 58.6822 398.006 58.6282 400.854C58.6093 401.851 58.5937 402.736 58.5811 403.499C58.5768 403.767 58.5743 403.922 58.5701 404.197C58.5671 404.396 58.5671 404.396 58.5649 404.437C58.554 405.318 59.2626 406.038 60.1416 406.039L185.459 406.173C186.33 406.173 187.038 405.467 187.038 404.594C187.038 370.989 188.823 307.508 191.986 292.665C194.525 280.785 199.162 266.21 204.397 253.151C206.854 247.008 209.78 240.361 213.72 231.823C214.903 231.64 216.079 231.408 217.243 231.128C222.858 229.741 224.509 229.307 227.398 228.37C238.596 224.741 245.318 219.588 246.514 211.238C247.489 204.448 244.384 195.292 239.556 190.654C236.093 187.332 231.285 186.464 224.896 187.221C222.991 187.447 221.135 187.78 218.448 188.34C218.042 188.424 216.698 188.707 216.508 188.747C216.238 188.803 215.993 188.854 215.765 188.901C210.861 180.95 207.348 175.72 203.2 170.542Z" fill="#53E191"/>
<path d="M205.128 202.644C195.502 203.65 189.948 211.531 192.748 220.479C192.77 220.551 193.777 224.035 194.16 225.195C195.203 228.349 196.3 230.509 197.822 231.801C202.007 235.355 206.101 236.038 211.835 234.624C212.68 234.415 213.197 233.56 212.989 232.713C212.781 231.866 211.926 231.349 211.08 231.557C206.266 232.745 203.209 232.235 199.862 229.391C198.916 228.589 198.024 226.832 197.155 224.202C196.794 223.111 195.798 219.667 195.758 219.538C193.569 212.541 197.763 206.589 205.455 205.785C206.321 205.695 206.95 204.918 206.86 204.051C206.77 203.183 205.994 202.553 205.128 202.644Z" fill="#007D43"/>
<path d="M197.353 207.254L197.348 207.255C189.206 208.685 165.441 209.883 154.864 209.647C153.783 209.624 152.692 209.611 151.134 209.602C150.868 209.6 150.655 209.599 150.177 209.596C139.825 209.541 135.436 209.171 130.614 207.367C124.077 204.922 119.864 200.049 118.043 191.992C116.092 183.36 114.699 174.061 113.442 162.294C112.973 157.905 112.729 155.359 111.88 146.213C111.706 144.342 111.583 143.024 111.458 141.716C110.35 130.006 109.349 117.075 107.915 96.7546C108.051 98.68 106.562 77.4429 106.164 71.9149C105.61 64.2168 105.136 57.9236 104.675 52.2541C103.531 37.9727 103.362 23.6894 105.268 17.9627C107.588 10.8133 113.829 5.65301 121.239 4.72911C140.076 1.8996 163.75 -0.240138 176.307 0.0216957C177.431 0.0452855 178.424 0.0554015 180.581 0.069771C186.94 0.112135 189.903 0.188144 193.647 0.495402C205.508 1.46859 213.79 4.51483 218.552 11.0634C221.148 14.6406 222.684 19.8056 223.643 26.7686C223.883 28.5119 224.084 30.3336 224.278 32.4468C224.353 33.2568 224.423 34.0716 224.511 35.1278C224.495 34.9328 224.673 37.0814 224.72 37.6291C224.778 38.3135 224.829 38.8834 224.879 39.413C224.918 39.8331 224.918 39.8331 224.956 40.2537C226.54 57.59 226.587 58.09 227.241 64.5666C227.687 68.9783 228.127 73.0589 228.581 76.9572C232.703 111.88 235.174 141.338 236.098 169.91C236.519 182.804 234.598 191.573 227.921 197.314C224.753 200.023 219.593 202.196 212.825 204.025C210.039 204.778 207.097 205.441 203.906 206.064C202.704 206.298 201.523 206.516 200.188 206.754C199.639 206.851 197.74 207.184 197.353 207.254Z" fill="#1A4E66"/>
<path d="M193.85 200.661C184.502 201.7 175.098 202.159 165.693 202.035C151.965 201.735 140.413 203.567 136.684 187.072C133.364 172.385 132.142 153.364 130.715 138.314C128.396 113.836 126.536 79.8826 124.541 55.2783C124.004 48.6456 122.451 25.8495 125.014 19.8722C127.576 13.8948 133.861 12.0392 138.379 11.1865C149.237 9.08609 162.468 7.4516 174.887 7.71217C186.186 7.94905 204.669 6.77253 212.207 17.1875C216.638 23.2991 217.009 38.2227 217.726 45.4477C218.799 56.6838 219.8 68.2674 221.148 79.6694C224.46 107.732 227.062 139.68 227.985 168.106C228.245 176.002 227.748 186.156 221.038 191.92C214.769 197.282 199.267 199.998 193.85 200.661Z" fill="white"/>
<path d="M118.941 9.50251C115.079 12.0889 113.838 18.68 114.013 29.0845C114.058 31.7246 114.184 34.3341 114.414 37.9597C114.447 38.4735 114.586 40.6096 114.62 41.1411C114.691 42.2748 114.739 43.1159 114.773 43.853C115.084 50.5994 115.554 58.4256 116.273 69.2215C116.374 70.7408 116.48 72.3312 116.603 74.1401C116.683 75.3319 117.164 82.4154 117.298 84.4052C117.556 88.2383 117.754 91.2433 117.928 93.9902C119.551 119.836 122.004 147.407 125.291 177.955C126.191 186.396 128.075 194.302 130.922 199.83C131.321 200.605 132.272 200.909 133.046 200.509C133.82 200.109 134.124 199.157 133.725 198.382C131.091 193.269 129.29 185.706 128.427 177.618C125.145 147.112 122.695 119.586 121.076 93.791C120.901 91.0383 120.703 88.0295 120.445 84.1927C120.311 82.202 119.83 75.118 119.75 73.9269C119.627 72.119 119.521 70.5296 119.42 69.0115C118.702 58.2354 118.233 50.4273 117.923 43.7086C117.889 42.9504 117.84 42.0927 117.767 40.9418C117.734 40.4065 117.595 38.2693 117.562 37.7589C117.334 34.1784 117.21 31.6114 117.167 29.0312C117.011 19.7839 118.129 13.8458 120.694 12.1279C121.418 11.6431 121.612 10.6623 121.128 9.93732C120.644 9.21233 119.665 9.01766 118.941 9.50251Z" fill="#0D323F"/>
<path d="M98.7906 233.769C97.5961 233.741 96.8653 232.445 97.4585 231.406C99.5047 227.824 101.833 224.033 104.719 219.538C105.904 217.691 107.132 215.803 108.767 213.309C109.289 212.512 111.203 209.597 111.051 209.828C111.965 208.435 112.647 207.394 113.308 206.379C114.996 203.79 116.375 201.643 117.646 199.616C127.53 183.851 137.82 171.275 148.914 162.612C155.267 157.652 162.802 158.93 167.571 165.685C170.07 169.217 170.185 173.221 168.526 177.988C167.874 179.861 167.072 181.602 165.65 184.396C163.814 188.003 163.82 187.992 163.296 189.184C161.395 193.517 160.174 200.978 159.904 207.93C159.791 210.901 160.137 214.287 160.89 218.141C161.474 221.131 162.263 224.239 163.37 228.09C163.601 228.896 163.84 229.714 164.143 230.739C164.223 231.008 164.742 232.759 164.887 233.251C165.19 234.278 164.406 235.302 163.338 235.278L98.7906 233.769Z" fill="#53E191"/>
<path d="M112.173 64.0301C111.872 59.6084 111.646 55.2219 111.498 50.9127C111.468 50.041 110.738 49.3587 109.868 49.3886C108.997 49.4186 108.316 50.1495 108.346 51.0212C108.495 55.3663 108.723 59.7883 109.026 64.2451C109.086 65.1153 109.838 65.7726 110.707 65.7132C111.576 65.6538 112.232 64.9003 112.173 64.0301Z" fill="#0D323F"/>
<path d="M113.771 85.7776C113.38 81.5519 113.076 77.0649 112.845 72.258C112.803 71.3868 112.064 70.7146 111.194 70.7565C110.324 70.7984 109.653 71.5386 109.695 72.4098C109.928 77.261 110.235 81.7939 110.63 86.0686C110.71 86.9371 111.479 87.576 112.346 87.4956C113.213 87.4152 113.851 86.6461 113.771 85.7776Z" fill="#0D323F"/>
<path d="M159.557 211.202C160.073 216.616 161.349 220.865 163.903 227.003C164.044 227.341 164.186 227.681 164.379 228.141C164.498 228.421 164.498 228.421 164.615 228.701C164.732 228.979 164.78 229.092 164.848 229.255C165.22 230.141 165.489 230.793 165.743 231.427C166.067 232.237 166.985 232.63 167.793 232.306C168.602 231.982 168.994 231.063 168.671 230.253C168.409 229.599 168.134 228.932 167.756 228.032C167.687 227.867 167.639 227.753 167.522 227.474C167.404 227.195 167.404 227.195 167.286 226.915C167.094 226.459 166.953 226.121 166.814 225.788C164.371 219.916 163.177 215.939 162.697 210.902C162.614 210.034 161.844 209.398 160.977 209.48C160.11 209.563 159.475 210.334 159.557 211.202Z" fill="#007D43"/>
<path d="M98.848 229.082C100.851 225.574 103.139 221.849 105.977 217.428C107.159 215.587 108.387 213.701 110.021 211.207C110.544 210.41 112.453 207.504 112.314 207.715C113.233 206.315 113.92 205.266 114.586 204.245C116.29 201.632 117.683 199.462 118.969 197.411C119.432 196.672 119.209 195.697 118.472 195.234C117.734 194.77 116.761 194.993 116.298 195.732C115.023 197.765 113.639 199.919 111.945 202.518C111.281 203.536 110.596 204.582 109.679 205.98C109.818 205.768 107.908 208.676 107.385 209.474C105.745 211.975 104.512 213.869 103.324 215.72C100.459 220.184 98.1444 223.952 96.1102 227.514C95.6777 228.271 95.9401 229.235 96.6961 229.668C97.4521 230.102 98.4156 229.839 98.848 229.082Z" fill="#007D43"/>
<path d="M164.347 275.232C165.962 275.602 167.544 276.104 169.077 276.733C169.883 277.064 170.804 276.677 171.134 275.87C171.464 275.063 171.078 274.141 170.272 273.81C168.58 273.116 166.834 272.562 165.051 272.153C164.203 271.958 163.357 272.489 163.162 273.34C162.967 274.19 163.498 275.037 164.347 275.232Z" fill="#007D43"/>
<path d="M71.0957 285.789C72.7673 280.136 68.9036 273.827 62.8164 273.519C58.7792 273.313 55.3807 275.69 53.7249 279.535C52.069 283.381 53.7249 289.406 58.1799 291.561C60.6361 292.736 63.4833 292.773 65.9689 291.662C68.4546 290.551 70.3286 288.405 71.0957 285.789Z" fill="#F97560"/>
<path d="M64.4089 288.039C65.3782 290.404 67.395 292.723 70.035 294.826C70.7166 295.369 71.7087 295.256 72.2509 294.574C72.7932 293.891 72.6802 292.898 71.9986 292.355C69.7421 290.557 68.0552 288.618 67.3268 286.84C66.9962 286.033 66.075 285.647 65.2692 285.978C64.4634 286.31 64.0783 287.232 64.4089 288.039Z" fill="#0B0B0A"/>
<path d="M72.0892 290.148C66.9954 293.101 65.4657 300.342 69.6685 304.756C72.4598 307.693 76.56 308.309 80.4079 306.658C84.2558 305.008 87.2048 299.552 85.4386 294.862C84.4603 292.317 82.4178 290.329 79.8495 289.422C77.2813 288.515 74.4452 288.78 72.0892 290.148Z" fill="#F97560"/>
<path d="M81.1462 304.042C81.3662 304.177 81.2315 304.083 83.3636 305.567L83.409 305.599C84.7942 306.562 85.496 307.036 85.8816 307.244C86.6484 307.657 87.6048 307.37 88.0177 306.602C88.4307 305.834 88.1437 304.876 87.3769 304.463C87.1519 304.341 86.4265 303.852 85.2085 303.005L85.1634 302.973C84.9916 302.854 84.7953 302.717 84.4368 302.467C84.1515 302.268 83.9509 302.129 83.7678 302.002C83.2818 301.666 82.9796 301.462 82.7921 301.348C82.0492 300.892 81.0784 301.127 80.6239 301.871C80.1694 302.615 80.4032 303.587 81.1462 304.042Z" fill="#0B0B0A"/>
<path d="M90.9424 300.523C85.8486 303.477 84.311 310.717 88.5138 315.131C91.3051 318.061 95.4053 318.677 99.2532 317.026C103.101 315.376 106.058 309.92 104.284 305.23C103.308 302.685 101.266 300.696 98.6986 299.791C96.1309 298.885 93.2956 299.153 90.9424 300.523Z" fill="#F97560"/>
<path d="M101.534 313.893C103.229 314.348 105.006 314.771 106.957 315.191C107.808 315.374 108.647 314.831 108.83 313.978C109.013 313.126 108.471 312.286 107.619 312.103C105.717 311.693 103.991 311.282 102.35 310.842C101.509 310.616 100.644 311.116 100.419 311.959C100.193 312.801 100.693 313.667 101.534 313.893Z" fill="#0B0B0A"/>
<path d="M112.476 305.893C107.178 307.914 104.859 314.973 108.092 319.679C108.476 320.231 108.914 320.741 109.401 321.203C110.952 322.963 113.155 324.01 115.496 324.101C119.39 324.351 123.037 322.182 124.681 318.64C126.326 315.097 125.631 310.907 122.931 308.087C120.231 305.268 116.08 304.396 112.476 305.893Z" fill="#F97560"/>
<path d="M190.055 301.617C190.907 303.995 191.026 306.575 190.399 309.022C190.182 309.866 190.69 310.727 191.534 310.944C192.378 311.161 193.237 310.652 193.454 309.807C194.238 306.748 194.089 303.524 193.024 300.551C192.731 299.73 191.828 299.303 191.008 299.597C190.188 299.892 189.762 300.796 190.055 301.617Z" fill="#0B0B0A"/>
<path d="M191.13 303.39C185.831 305.411 183.513 312.462 186.746 317.176C187.129 317.728 187.568 318.238 188.055 318.7C189.605 320.46 191.808 321.507 194.15 321.598C198.043 321.848 201.69 319.679 203.335 316.137C204.979 312.594 204.285 308.404 201.585 305.584C198.885 302.765 194.733 301.893 191.13 303.39Z" fill="#F97560"/>
<path d="M188.198 315C186.456 315.926 184.679 316.775 182.865 317.547C182.063 317.888 181.689 318.815 182.03 319.618C182.371 320.421 183.297 320.795 184.098 320.454C185.996 319.646 187.855 318.758 189.677 317.789C190.447 317.38 190.739 316.424 190.331 315.654C189.922 314.884 188.968 314.591 188.198 315Z" fill="#0B0B0A"/>
<path d="M173.168 311.878C168.074 314.831 166.544 322.072 170.747 326.486C173.538 329.415 177.639 330.031 181.486 328.381C185.334 326.731 188.283 321.274 186.517 316.584C185.537 314.04 183.494 312.054 180.926 311.149C178.358 310.244 175.523 310.51 173.168 311.878Z" fill="#F97560"/>
<path d="M170.487 320.346C168.73 320.46 166.942 320.54 165.092 320.588C164.221 320.611 163.534 321.336 163.556 322.208C163.579 323.079 164.303 323.768 165.174 323.745C167.064 323.696 168.893 323.615 170.692 323.498C171.561 323.441 172.219 322.69 172.163 321.819C172.107 320.949 171.356 320.289 170.487 320.346Z" fill="#0B0B0A"/>
<path d="M148.172 319.94C147.06 325.096 150.538 330.11 155.529 331.437C161.403 333.016 167.144 326.699 166.86 322.166C166.576 317.634 163.879 313.212 158.975 312.328C153.928 311.412 149.237 315.044 148.172 319.94Z" fill="#F97560"/>
<path d="M149.548 320.097C147.481 319.81 145.657 319.54 143.896 319.257C143.036 319.119 142.227 319.705 142.089 320.566C141.951 321.427 142.536 322.237 143.396 322.376C145.181 322.662 147.027 322.936 149.115 323.225C149.977 323.345 150.774 322.742 150.893 321.878C151.013 321.014 150.411 320.217 149.548 320.097Z" fill="#0B0B0A"/>
<path d="M122.322 318.833L128.559 319.955C129.417 320.109 130.236 319.538 130.39 318.679C130.544 317.821 129.974 317 129.117 316.846L122.88 315.725C122.022 315.57 121.203 316.141 121.049 317C120.895 317.858 121.465 318.679 122.322 318.833Z" fill="#0B0B0A"/>
<path d="M132.402 311.033C127.308 313.986 125.771 321.227 129.981 325.641C132.773 328.57 136.873 329.186 140.713 327.536C144.553 325.886 147.518 320.429 145.744 315.739C144.768 313.194 142.726 311.206 140.158 310.3C137.59 309.394 134.755 309.662 132.402 311.033Z" fill="#F97560"/>
<path d="M220.793 164.552C222.434 164.545 224.129 164.647 225.706 164.758L227.851 164.884C227.89 165.934 227.961 166.992 227.961 168.043C227.13 168 226.31 167.953 225.501 167.9C223.979 167.798 222.331 167.703 220.825 167.703C216.456 167.79 212.107 168.305 207.838 169.243C209.101 172.527 209.987 175.944 210.48 179.429C210.754 181.11 210.933 182.805 211.016 184.506C216.075 184.691 221.14 184.541 226.179 184.056C225.761 185.198 225.246 186.302 224.641 187.356C221.211 187.625 218.01 187.751 215.014 187.751C213.658 187.751 212.349 187.72 211.071 187.672C211.081 190.851 210.791 194.024 210.204 197.148C209.061 197.503 207.909 197.835 206.758 198.143C207.566 194.659 207.952 191.09 207.909 187.514C199.971 186.926 192.131 185.394 184.554 182.95C183.198 182.532 181.889 182.098 180.611 181.655C179.823 182.429 179.034 183.227 178.246 184.064C175.384 187.009 172.844 190.252 170.668 193.736C169.895 195.087 168.106 198.506 166.347 202.035H165.701C164.739 201.996 163.785 201.996 162.846 201.996C164.888 197.842 167.144 193.594 167.932 192.173C170.219 188.476 172.894 185.035 175.912 181.908C176.377 181.403 176.858 180.913 177.339 180.424C174.461 179.317 171.67 177.997 168.989 176.476C169.292 175.392 169.49 174.281 169.58 173.159C172.861 175.12 176.323 176.759 179.917 178.055C184.853 173.739 190.671 170.556 196.965 168.73C204.44 166.605 212.498 164.624 220.793 164.552ZM204.708 169.946C202.366 170.506 200.064 171.122 197.816 171.762C192.557 173.278 187.652 175.828 183.387 179.263C184.081 179.492 184.782 179.713 185.5 179.934C192.758 182.266 200.263 183.742 207.862 184.332C207.553 179.403 206.49 174.551 204.708 169.946ZM171.307 7.66479C169.389 11.0775 167.283 14.3805 164.999 17.5586C164.966 17.7109 164.904 17.8556 164.817 17.985C164.195 18.9246 165.653 21.4514 166.205 22.3989C168.981 27.2155 172.529 29.4186 176.992 31.2426C185.058 34.5431 194.047 35.9092 203.099 36.3434C201.838 35.0722 200.553 33.8641 199.33 32.7033C197.95 31.4005 196.642 30.1687 195.49 28.9764C190.441 23.6485 187.039 16.9707 185.697 9.74937C185.61 9.20454 185.516 8.56495 185.429 7.8543C186.486 7.88589 187.55 7.93326 188.63 7.99643C188.686 8.44651 188.741 8.82552 188.812 9.23612C190.064 15.8324 193.172 21.9332 197.769 26.8207C198.873 27.9657 200.15 29.1659 201.507 30.4451C203.509 32.3322 205.646 34.3536 207.625 36.533C210.772 36.5803 213.894 36.533 216.977 36.4382C217.08 37.5279 217.158 38.578 217.245 39.5966C214.943 39.6677 212.656 39.723 210.291 39.723C213.965 44.5633 216.378 50.1537 214.943 56.7707C214.535 58.4258 213.672 59.9331 212.451 61.1214H213.594C215.447 61.1135 217.324 61.1056 219.169 60.9872L219.477 64.1456C217.545 64.2878 215.55 64.2878 213.602 64.2878H212.096C210.038 64.3035 207.972 64.2246 205.922 64.1061H205.733C203.241 63.964 200.773 63.7587 198.345 63.5534C190.444 62.9138 182.985 62.2506 175.407 63.7034C169.722 64.7931 164.676 67.2804 159.582 69.9572C157.816 70.8731 152.769 73.6052 149.804 75.2633C152.485 77.6243 154.953 79.9536 157.066 81.9908C159.526 81.211 162.088 80.7986 164.668 80.7669L165.22 80.7859C169.819 80.9799 174.338 82.0726 178.522 84.0043C188.236 77.3795 199.496 79.7088 209.463 81.7697C210.732 82.0619 211.986 82.3225 213.232 82.5593C213.376 82.5927 213.517 82.643 213.65 82.7094L214.052 82.4567L215.337 81.6671C217.117 80.5471 219.023 79.6407 221.014 78.9666L221.109 79.7562L221.385 82.1251C219.862 82.6799 218.402 83.3973 217.032 84.2649L215.731 85.0545C212.53 87.0759 209.502 88.9868 207.184 92.0742C205.968 93.7237 204.849 95.4427 203.833 97.2224C208.336 99.2337 213.161 100.426 218.081 100.744C219.832 100.839 221.606 100.815 223.38 100.744L223.687 103.903C221.779 103.958 219.855 103.989 217.947 103.903C212.537 103.559 207.235 102.238 202.295 100.002C200.915 102.623 199.654 105.316 198.416 107.969C196.042 113.015 193.59 118.273 190.334 122.972C190.065 123.351 189.789 123.777 189.498 124.211C188.39 125.961 187.134 127.612 185.744 129.146C188.362 130.539 190.874 132.122 193.259 133.884C194.647 134.903 195.987 136 197.304 137.153C203.052 132.968 208.296 130.165 213.46 128.467C216.086 127.599 218.759 126.833 221.345 126.098L225.477 124.867C225.564 125.933 225.643 127.007 225.722 128.08L222.165 129.107C219.611 129.857 216.969 130.591 214.414 131.436C209.124 133.288 204.146 135.937 199.654 139.293C201.089 140.643 202.5 142.025 203.88 143.391C205.709 145.199 207.586 147.047 209.502 148.784C212.404 147.789 215.479 146.999 218.452 146.21L219.745 145.87C222.082 145.236 224.45 144.727 226.841 144.346C226.904 145.397 226.967 146.455 227.023 147.505C224.72 147.876 222.528 148.397 220.588 148.91L219.287 149.258C216.977 149.858 214.612 150.49 212.341 151.184L213.035 151.745C216.941 154.823 221.243 157.362 225.824 159.294C226.415 159.544 227.02 159.758 227.638 159.933C227.685 161.039 227.732 162.144 227.772 163.242C226.683 162.973 225.616 162.625 224.578 162.199C219.746 160.164 215.211 157.484 211.095 154.232C207.801 151.548 204.663 148.677 201.696 145.633C200.198 144.149 198.684 142.649 197.107 141.196C195.924 142.104 194.71 143.067 193.472 144.102C190.632 146.513 187.995 149.154 185.587 151.998C185.505 152.256 185.355 152.488 185.153 152.669L184.53 153.222C182.906 155.156 181.305 157.154 179.673 159.199C177.891 161.426 176.054 163.731 174.153 165.95C172.534 167.85 171.015 169.724 169.596 171.572C169.542 170.21 169.232 168.871 168.681 167.624C169.667 166.392 170.692 165.145 171.764 163.897C172.589 162.913 173.412 161.92 174.232 160.92C173.594 161.284 172.947 161.639 172.285 161.963C170.4 162.898 168.426 163.644 166.394 164.189C165.545 163.204 164.57 162.336 163.493 161.607C166.059 161.126 168.548 160.294 170.889 159.136C175.019 156.928 178.846 154.194 182.275 151.003C185.061 147.626 188.134 144.498 191.461 141.654C192.586 140.738 193.674 139.864 194.725 139.032C193.637 138.093 192.533 137.192 191.406 136.363C188.641 134.342 185.698 132.577 182.614 131.089C182.275 131.052 181.959 130.901 181.715 130.662C175.907 128.012 169.665 126.447 163.296 126.043C159.378 125.785 155.443 125.957 151.563 126.556C151.902 130.331 152.296 134.453 152.856 138.637L153.187 138.906C153.505 139.178 153.702 139.566 153.734 139.983C153.767 140.401 153.632 140.814 153.36 141.133C153.32 141.179 153.275 141.221 153.226 141.259C154.196 147.757 155.639 154.24 157.957 159.681C156.842 159.585 155.718 159.651 154.622 159.878C152.257 153.964 150.845 147.094 149.891 140.327C147.64 138.627 145.147 137.275 142.495 136.316C139.873 135.32 137.157 134.593 134.389 134.145C133.04 133.996 131.677 134.028 130.336 134.239C130.21 132.818 130.084 131.373 129.958 129.904C130.573 129.644 131.188 129.391 131.811 129.115C133.798 128.238 135.856 127.52 137.851 126.825L138.82 126.485C141.869 125.396 144.991 124.528 148.164 123.888L147.928 121.211C147.36 114.618 146.769 107.803 144.293 101.984C143.312 99.4286 141.681 97.1747 139.562 95.4458C135.368 98.912 131.58 102.843 128.27 107.164C128.155 105.648 128.047 104.124 127.947 102.592C130.561 99.4156 133.45 96.4773 136.581 93.8113C133.813 92.7927 130.667 92.7848 127.3 93.2822L127.087 90.1238C131.487 89.5 135.745 89.6342 139.428 91.5451C143.213 88.6319 147.285 86.1107 151.578 84.0201C150.719 83.6885 149.867 83.3411 149.032 82.9936C145.744 81.6276 142.645 80.3405 139.246 80.2379C134.945 80.0173 130.638 80.5517 126.52 81.8171C126.449 80.7353 126.37 79.6536 126.299 78.5797C130.535 77.3815 134.937 76.8828 139.333 77.1031C142.996 77.2048 146.266 78.4494 149.418 79.7485L150.238 80.0879L150.9 80.3642C147.58 77.2561 144.093 74.3328 140.453 71.6074C136.557 68.7412 131.724 67.0988 127.947 65.9854L127.324 65.8038L125.353 65.2353C125.266 64.114 125.187 63.0086 125.1 61.911C126.141 62.1637 127.158 62.4638 128.16 62.7559C127.127 58.4446 127.087 53.2806 127.04 48.5429C127.024 46.711 127.016 44.9976 126.946 43.4184C126.898 42.4629 126.827 41.5233 126.741 40.5915L124.998 40.71L123.744 40.7732C123.713 39.7388 123.657 38.6807 123.657 37.6147C124.028 37.5752 124.407 37.5752 124.761 37.5752L126.338 37.4726C125.851 34.2241 124.986 31.044 123.76 27.9973C123.842 26.1178 124.042 24.2454 124.359 22.391C124.955 23.2645 125.483 24.1833 125.936 25.1389C127.693 29.0039 128.885 33.1018 129.477 37.3068C133.135 37.0541 136.628 36.6435 139.98 35.0643C143.746 33.396 147.283 31.2519 150.506 28.6842C156.925 23.3149 162.413 16.6269 167.625 7.73586C168.855 7.66479 170.085 7.66479 171.307 7.66479ZM132.37 156.609C136.411 157.386 140.333 158.684 144.04 160.47H144.088C146.264 160.944 148.361 161.339 150.396 161.631C149.884 161.947 149.389 162.289 148.913 162.657C147.896 163.455 146.879 164.3 145.862 165.176C141.854 162.569 137.379 160.765 132.686 159.862C132.575 158.773 132.473 157.691 132.37 156.609ZM148.424 127.093C145.519 127.686 142.658 128.477 139.861 129.462L138.884 129.802C137.701 130.212 136.518 130.639 135.335 131.089C138.137 131.576 140.888 132.324 143.551 133.323C145.57 134.059 147.509 134.999 149.339 136.127C148.968 133 148.685 129.952 148.424 127.093ZM164.644 83.8306L164.121 83.8474C161.684 83.9523 159.276 84.4283 156.98 85.2598H156.956C156.764 85.3872 156.546 85.4708 156.317 85.5046C151.237 87.492 146.46 90.1817 142.124 93.4954C144.337 95.5129 146.058 98.0116 147.155 100.799C148.61 104.414 149.596 108.201 150.088 112.067C150.209 112.253 150.29 112.463 150.325 112.683C150.656 114.72 153.857 118.573 155.844 120.247C157.53 121.465 159.487 122.254 161.545 122.545C161.817 122.578 162.075 122.682 162.294 122.845C162.696 122.901 163.091 122.901 163.485 122.901C170.128 123.31 176.642 124.915 182.717 127.638C184.167 126.446 185.642 124.251 186.856 122.427C187.164 121.977 187.448 121.542 187.724 121.148C190.814 116.663 193.227 111.53 195.546 106.571C196.776 103.934 198.029 101.257 199.409 98.6279C197.958 97.9331 196.578 97.2224 195.301 96.5354C193.409 95.5011 191.39 94.3482 189.466 93.2428C181.455 88.6235 173.168 83.8306 164.644 83.8306ZM150.94 119.703C150.971 120.121 151.05 120.548 151.05 120.966L151.263 123.382H151.279C152.296 123.232 153.313 123.114 154.315 123.011C154.149 122.893 153.968 122.766 153.818 122.64C152.785 121.735 151.823 120.753 150.94 119.703ZM208.832 84.7624C199.654 82.8673 190.192 80.909 181.944 85.5046C185.027 87.0364 188.063 88.7736 191.051 90.5028C193.046 91.6556 194.93 92.7374 196.807 93.7481C198.092 94.443 199.48 95.1536 200.939 95.8564C202.066 93.8737 203.308 91.9596 204.661 90.1238C206.173 88.1535 207.979 86.4278 210.015 85.0071L208.824 84.7624H208.832ZM159.495 34.5826C156.814 34.9616 154.165 35.4749 151.421 36.0118L149.796 36.3277C148.464 36.6119 147.131 36.983 145.728 37.4015C143.58 38.1315 141.359 38.6214 139.104 38.8623H138.915C135.969 39.7735 132.919 40.3042 129.839 40.4415C129.926 41.397 130.005 42.3524 130.044 43.3315C130.147 44.9581 130.147 46.711 130.147 48.5666C130.186 53.857 130.241 59.8107 131.724 63.9087C135.482 65.07 139.04 66.8009 142.274 69.0412C143.961 70.3283 145.649 71.6469 147.226 72.9893C149.465 71.7101 153.92 69.286 156.601 67.8568C156.649 67.756 156.707 67.6607 156.775 67.5725H156.783C163.721 59.021 161.443 45.1239 159.495 34.5826ZM179.744 35.5775C174.796 34.3509 169.697 33.8404 164.605 34.0615C163.942 34.101 163.288 34.1562 162.633 34.2115C164.384 43.7421 166.331 55.76 162.018 65.0616C166.051 62.9718 170.348 61.4391 174.792 60.5055C182.819 58.9737 190.822 59.6527 198.589 60.3081C201.002 60.5134 203.47 60.7187 205.938 60.8608C208.705 60.5886 211.034 58.6708 211.836 56.0047C213.2 49.751 210.204 44.3185 206.143 39.5808C197.162 39.3598 188.102 38.3254 179.736 35.5775H179.744ZM162.129 21.3251C159.245 24.8922 156.027 28.1736 152.517 31.1241C151.665 31.8348 150.782 32.4901 149.899 33.106L150.821 32.9244C155.304 31.9457 159.849 31.2783 164.423 30.9267C166.196 30.8282 167.973 30.8282 169.746 30.9267H169.754C167.175 29.0936 165.03 26.7162 163.469 23.9624C162.963 23.1145 162.516 22.2334 162.129 21.3251ZM198.077 9.17295C199.41 9.44796 200.727 9.80127 202.019 10.231C203.164 12.627 204.681 14.8258 206.514 16.7453C208.934 19.176 211.719 21.2116 214.769 22.7779C215.14 24.0413 215.455 25.3915 215.731 26.7892C211.457 24.9143 207.569 22.2579 204.266 18.9562C201.557 16.1531 199.45 12.8234 198.077 9.17295Z" fill="#EAF3F3"/>
<path d="M180.534 68.8778C188.961 71.8362 192.779 81.6317 191.238 91.7464C190.514 96.4464 188.966 100.544 186.04 106.373C185.648 107.153 185.356 107.726 184.599 109.199C184.064 110.236 183.269 111.592 182.268 113.2C182.128 113.424 181.985 113.653 181.839 113.885C181.094 115.065 180.298 116.292 179.502 117.494C179.223 117.914 178.964 118.301 178.732 118.647C178.592 118.855 178.492 119.003 178.438 119.083C177.86 119.933 176.637 120.012 175.955 119.243C170.585 113.19 166.006 106.477 162.312 99.2416C158.253 90.9116 157.147 82.3898 160.83 76.3686C162.486 73.8189 164.762 71.733 167.431 70.3147C170.705 68.5336 177.235 67.7164 180.534 68.8778ZM171.104 76.0985C167.196 77.8378 165.346 82.809 166.844 87.651C168.38 92.6142 177.434 95.0115 181.066 90.457L181.067 90.4557C183.561 87.3358 183.923 82.1596 181.712 79.3819C179.159 76.1716 174.516 74.5833 171.104 76.0985Z" fill="#FC6E47"/>
<path d="M237.1 35.0776C236.094 34.4885 236.052 33.0468 237.022 32.3997C240.773 29.8984 247.687 28.0397 253.152 28.2782C260.36 28.5927 264.682 32.361 263.787 39.475C263.138 44.7199 257.833 47.6213 252.924 45.9485C250.801 45.2281 249.152 44.0853 246.365 41.7101C246.232 41.5969 245.754 41.1892 245.784 41.2144C245.554 41.0183 245.382 40.8722 245.215 40.7312C244.794 40.3756 244.443 40.0874 244.111 39.8252C243.976 39.7192 243.846 39.6184 243.712 39.5171C241.602 37.9022 239.394 36.4196 237.1 35.0776Z" fill="#90BFFF"/>
<path d="M306.806 73.2943C304.226 72.812 302.276 71.3027 300.761 68.9029C299.676 67.1829 298.982 65.4546 297.825 61.985C297.742 61.7366 297.742 61.7366 297.659 61.4894C296.232 57.2057 295.435 55.4165 294.138 54.0825C293.221 53.1394 293.791 51.5525 295.098 51.4107C302.619 50.5949 311.511 55.2682 313.961 60.9795C316.615 67.156 313.601 74.5707 306.806 73.2943Z" fill="#90BFFF"/>
<path d="M286.514 182.672C283.935 179.644 283.898 175.906 285.521 170.754C285.814 169.823 286.13 168.925 286.631 167.569C287.903 164.121 288.168 163.342 288.442 162.041C288.711 160.757 290.334 160.343 291.184 161.34C296.366 167.421 299.349 173.387 298.532 177.976C297.499 183.82 290.643 187.48 286.514 182.672Z" fill="#90BFFF"/>
<path d="M255.722 68.5147C255.766 69.0149 255.761 69.5295 255.706 71.9629C255.638 74.9382 255.638 76.8262 255.75 78.9022C255.981 83.1559 256.666 86.3957 258.07 88.5803C260.014 91.6046 263.196 92.2968 267.138 90.3201C271.298 88.2431 272.534 84.951 271.175 81.1752C270.488 79.2664 269.2 77.3356 267.395 75.249C266.62 74.3527 266.086 73.7869 264.764 72.4255C262.804 70.3531 260.565 68.5345 258.118 67.0318C257.014 66.3542 255.61 67.2232 255.722 68.5147Z" fill="#90BFFF"/>
<path d="M321.297 144.707C322.589 148.04 325.406 149.931 329.664 149.905C334.187 149.878 336.515 147.283 336.385 143.233C336.29 140.289 334.887 136.609 332.834 133.343C331.058 130.544 330.512 129.705 329.449 128.209C327.912 126.046 326.454 124.285 325.007 122.931C324.04 122.026 322.457 122.645 322.358 123.966C322.163 126.538 321.596 130.89 320.804 135.87C320.277 139.245 320.349 142.262 321.297 144.707Z" fill="#90BFFF"/>
<path d="M299.466 116.17C300.47 120.793 299.22 125.597 295.287 127.121C291.466 128.606 286.343 126.777 284.512 123.442C283.438 121.492 283.14 119.625 283.437 117.551C283.589 116.497 283.667 116.203 284.398 113.718C284.561 113.167 284.677 112.752 284.783 112.337C284.942 111.717 285.196 111.047 285.61 110.094C285.698 109.891 286.477 108.146 286.714 107.591C287.771 105.112 288.361 103.143 288.523 101.123C288.638 99.705 290.418 99.1491 291.317 100.251C294.874 104.612 298.597 112.165 299.466 116.17Z" fill="#90BFFF"/>
<path d="M77.4513 45.5497C73.4151 43.5404 66.3234 42.5601 60.9309 43.4772C53.8164 44.6873 49.9954 48.9639 51.7713 55.9146C53.0762 61.0382 58.6945 63.2539 63.3556 60.9865C65.3577 60.0141 66.8571 58.6747 69.268 56.0344C69.4058 55.8835 69.868 55.3755 69.9162 55.3226C70.1681 55.0462 70.3616 54.8354 70.5486 54.6344C70.9779 54.1728 71.3422 53.7961 71.6898 53.4581C73.5906 51.5827 75.5979 49.8352 77.7078 48.2178C78.6346 47.5073 78.4964 46.0699 77.4513 45.5497Z" fill="#90BFFF"/>
<path d="M87.0515 113.966C89.4434 112.929 91.0065 111.041 91.9518 108.393C92.6333 106.483 92.9366 104.603 93.283 101.053C93.2973 100.906 93.3094 100.782 93.3355 100.512C93.7807 95.9083 94.1444 94.0216 95.1073 92.4248C95.784 91.3025 94.8794 89.8908 93.5786 90.0394C86.069 90.8969 78.4342 97.4372 77.3424 103.549C76.1235 110.163 80.7062 116.721 87.0515 113.966Z" fill="#90BFFF"/>
<path d="M64.6341 154.527C67.1991 151.102 67.0825 147.026 65.1031 141.685C64.6468 140.454 64.1443 139.268 63.3425 137.48C61.5125 133.397 61.1949 132.642 60.7695 131.14C60.4124 129.879 58.7656 129.577 57.9858 130.63C52.5361 137.986 49.598 145.026 50.8694 150.167C52.478 156.653 60.421 160.205 64.6341 154.527Z" fill="#90BFFF"/>
<path d="M10.6169 105.172C11.5891 104.316 13.1201 104.933 13.2295 106.225C13.2605 106.592 13.3631 107.204 13.566 108.256C13.606 108.463 13.6489 108.683 13.7098 108.993C13.7869 109.385 13.8295 109.602 13.8679 109.798C14.0027 110.487 14.1069 111.029 14.2088 111.579C14.5817 113.592 14.8512 115.326 15.0288 116.993C15.4664 121.098 15.2901 124.31 14.2357 126.617C12.7912 129.778 9.80837 130.917 5.68528 129.68C0.344114 128.075 -1.03086 124.179 0.714957 119.26C1.25473 117.739 2.06203 116.167 3.11996 114.457C3.66262 113.58 4.01419 113.054 4.96548 111.661C6.55445 109.258 8.45483 107.075 10.6169 105.172Z" fill="#90BFFF"/>
<path d="M38.3139 109.859C41.5955 112.319 47.0234 111.938 49.6803 109.215C52.0619 106.791 52.4887 104.819 52.409 100.279C52.3934 99.3869 52.39 98.9624 52.3999 98.4449C52.4202 97.5273 52.4185 97.5135 51.9533 94.3378C51.4682 91.0254 51.3757 88.8785 51.8114 86.6351C52.0821 85.2405 50.5199 84.2251 49.3581 85.0405C44.7676 88.2628 39.157 94.5415 37.2311 98.1893C35.0199 102.37 34.9298 107.336 38.3139 109.859Z" fill="#90BFFF"/>
</svg>
