<svg width="58" height="56" viewBox="0 0 58 56" fill="none" xmlns="http://www.w3.org/2000/svg">
<rect width="58" height="56" rx="28" fill="#1B2B85"/>
<path d="M28.9678 8.5C32.8782 8.5 36.9146 10.0815 39.9746 12.6279C43.0348 15.1746 45.1668 18.7294 45.167 22.6982C45.167 23.877 44.2109 24.8329 43.0322 24.833H29.833V43C29.833 44.105 29.3946 45.1649 28.6133 45.9463C27.832 46.7276 26.7719 47.1669 25.667 47.167C25.1396 47.167 24.1295 47.0645 23.168 46.8779C22.6849 46.7842 22.1988 46.6666 21.7822 46.5234C21.3856 46.3871 20.9788 46.2043 20.7207 45.9463C19.9393 45.1649 19.5 44.1051 19.5 43V32.667C19.5 32.2692 19.6583 31.8877 19.9395 31.6064C20.2208 31.3251 20.6022 31.167 21 31.167C21.3978 31.167 21.7792 31.3251 22.0605 31.6064C22.3417 31.8877 22.5 32.2692 22.5 32.667V43C22.5 43.2483 22.5571 43.3482 22.8359 43.792C23.188 43.9497 23.7527 44.052 24.3398 44.1074C24.9629 44.1662 25.5197 44.167 25.667 44.167C25.9761 44.1669 26.2725 44.0437 26.4912 43.8252C26.71 43.6064 26.833 43.3094 26.833 43V24.833H15.6348C14.456 24.833 13.5 23.8771 13.5 22.6982C13.5002 14.8571 19.8571 8.50023 27.6982 8.5H28.9678ZM33.7109 12.5537C34.0821 13.2777 34.3963 14.0482 34.6641 14.8203C35.5005 17.2338 35.9667 19.9127 36.2188 21.833H42.0967C41.9126 20.9599 41.3533 20.057 40.6113 19.125C40.1735 18.575 39.6926 18.0376 39.2197 17.5068C38.752 16.9819 38.289 16.4595 37.9111 15.958C36.8061 14.4913 35.3612 13.3262 33.7109 12.5537ZM28.333 11.5C27.7304 11.5001 27.138 11.7891 26.5146 12.5361C25.9531 13.2083 25.4525 14.1613 25.0186 15.3027L24.8359 15.8027C24.1423 17.8027 23.7227 20.0663 23.4756 21.833H33.1914C32.9614 20.1896 32.5815 18.1145 31.9707 16.2227L31.8301 15.8027C31.3562 14.4389 30.794 13.3042 30.1523 12.5361C29.5288 11.7889 28.9357 11.5 28.333 11.5ZM22.9551 12.5537C21.305 13.3262 19.8608 14.4915 18.7559 15.958C17.4681 17.6673 16.7005 19.7065 16.5352 21.833H20.4473C20.6991 19.9129 21.1643 17.234 22.002 14.8203C22.2696 14.0483 22.584 13.2776 22.9551 12.5537Z" fill="white" stroke="white"/>
</svg>
