<svg width="114" height="46" viewBox="0 0 114 46" fill="none" xmlns="http://www.w3.org/2000/svg">
<path d="M32.0466 24.4705C32.1213 26.2065 32.112 27.9705 32.0186 29.7625L31.9346 38.6945C31.6546 38.6572 31.3466 38.6385 31.0106 38.6385C30.6746 38.6385 30.3386 38.6385 30.0026 38.6385C29.6666 38.6385 29.34 38.6478 29.0226 38.6665C28.724 38.6665 28.4626 38.6665 28.2386 38.6665C28.2013 37.8638 28.1733 36.9958 28.1546 36.0625C28.1546 35.1292 28.1453 34.1772 28.1266 33.2065C28.1266 32.2358 28.0986 31.2838 28.0426 30.3505C28.0053 29.4172 27.94 28.5585 27.8466 27.7745C27.716 27.9798 27.5666 28.3065 27.3986 28.7545C27.2306 29.1838 27.0626 29.6318 26.8946 30.0985C26.7266 30.5652 26.568 30.9758 26.4186 31.3305C26.2693 31.6852 26.1573 31.8625 26.0826 31.8625C25.9893 31.8625 25.8773 31.7692 25.7466 31.5825C25.6346 31.3772 25.5133 31.1252 25.3826 30.8265C25.2706 30.5278 25.1493 30.2105 25.0186 29.8745C24.888 29.5385 24.776 29.2305 24.6826 28.9505C24.5893 28.6705 24.5053 28.4372 24.4306 28.2505C24.3746 28.0638 24.3466 27.9705 24.3466 27.9705C24.1973 29.7252 24.1413 31.4985 24.1786 33.2905C24.2346 35.0825 24.3186 36.8465 24.4306 38.5825C23.8333 38.6758 23.18 38.7132 22.4706 38.6945C21.7613 38.6758 21.108 38.6665 20.5106 38.6665C20.4733 38.6665 20.4453 38.6385 20.4266 38.5825C20.408 38.5078 20.3893 38.3305 20.3706 38.0505C20.352 37.7705 20.3333 37.3505 20.3146 36.7905C20.3146 36.2118 20.3146 35.4558 20.3146 34.5225C20.3146 33.5892 20.3146 32.4318 20.3146 31.0505C20.3333 29.6692 20.3426 28.0265 20.3426 26.1225C20.3613 24.2185 20.38 21.9972 20.3986 19.4585C20.6413 19.3838 20.9213 19.3372 21.2386 19.3185C21.556 19.2998 21.8826 19.2998 22.2186 19.3185C22.5546 19.3185 22.8906 19.3278 23.2266 19.3465C23.5626 19.3465 23.8893 19.3372 24.2066 19.3185H24.2346C24.4026 19.5052 24.5706 19.7945 24.7386 20.1865C24.9066 20.5598 25.0653 20.9612 25.2146 21.3905C25.364 21.8198 25.504 22.2305 25.6346 22.6225C25.784 23.0145 25.9333 23.3225 26.0826 23.5465C26.1386 23.6025 26.1946 23.6305 26.2506 23.6305C26.3066 23.6492 26.3906 23.4718 26.5026 23.0985C26.6333 22.7252 26.764 22.2958 26.8946 21.8105C27.044 21.3065 27.2026 20.8118 27.3706 20.3265C27.5573 19.8412 27.7346 19.4865 27.9026 19.2625C28.0333 19.2812 28.2666 19.2812 28.6026 19.2625C28.9573 19.2438 29.3306 19.2252 29.7226 19.2065C30.1333 19.1878 30.544 19.1785 30.9546 19.1785C31.384 19.1598 31.748 19.1505 32.0466 19.1505C31.972 20.9425 31.972 22.7158 32.0466 24.4705ZM44.058 29.1185C44.0953 29.1932 44.1606 29.2865 44.254 29.3985C44.5526 29.7718 44.8326 30.1452 45.094 30.5185C45.374 30.8732 45.6073 31.2558 45.794 31.6665C45.9993 32.0585 46.1393 32.4972 46.214 32.9825C46.2886 33.4678 46.27 34.0092 46.158 34.6065C46.0086 35.4838 45.7193 36.2025 45.29 36.7625C44.8793 37.3038 44.3753 37.7238 43.778 38.0225C43.1806 38.3212 42.518 38.5265 41.79 38.6385C41.062 38.7318 40.306 38.7785 39.522 38.7785C38.7566 38.7972 37.982 38.7785 37.198 38.7225C36.4326 38.6665 35.714 38.6292 35.042 38.6105C34.93 38.6105 34.818 38.6105 34.706 38.6105C34.6126 38.6105 34.5193 38.5918 34.426 38.5545C34.314 35.3252 34.286 32.1238 34.342 28.9505C34.398 25.7585 34.398 22.5385 34.342 19.2905L34.37 19.2625C35.1166 19.0572 35.91 18.8985 36.75 18.7865C37.59 18.6745 38.4206 18.6372 39.242 18.6745C40.0633 18.7118 40.8473 18.8332 41.594 19.0385C42.3593 19.2438 43.0313 19.5798 43.61 20.0465C44.1886 20.4945 44.646 21.0825 44.982 21.8105C45.318 22.5198 45.486 23.3972 45.486 24.4425C45.486 25.2265 45.346 25.9918 45.066 26.7385C44.8046 27.4852 44.4873 28.1758 44.114 28.8105C44.0393 28.9412 44.0206 29.0438 44.058 29.1185ZM40.95 34.5505C41.2113 34.4385 41.4353 34.2705 41.622 34.0465C41.8273 33.7665 41.9206 33.4305 41.902 33.0385C41.902 32.6465 41.8366 32.2918 41.706 31.9745C41.594 31.7505 41.426 31.5545 41.202 31.3865C40.978 31.1998 40.7446 31.0785 40.502 31.0225C40.1473 30.9292 39.7833 30.8825 39.41 30.8825C39.0366 30.8638 38.6726 30.8358 38.318 30.7985C38.2433 31.0785 38.178 31.3958 38.122 31.7505C38.066 32.1052 38.0286 32.4692 38.01 32.8425C38.01 33.1972 38.038 33.5425 38.094 33.8785C38.15 34.2145 38.2526 34.4945 38.402 34.7185L38.458 34.7465C38.7193 34.7465 38.99 34.7558 39.27 34.7745C39.5686 34.7745 39.858 34.7652 40.138 34.7465C40.4366 34.7092 40.7073 34.6438 40.95 34.5505ZM40.978 26.7105C41.2393 26.5612 41.4446 26.3465 41.594 26.0665C41.7246 25.8425 41.8366 25.5812 41.93 25.2825C42.0233 24.9838 41.9953 24.6852 41.846 24.3865C41.6966 24.0878 41.5006 23.8638 41.258 23.7145C41.034 23.5465 40.7726 23.4252 40.474 23.3505C40.1006 23.2758 39.6993 23.2385 39.27 23.2385C38.8593 23.2198 38.514 23.2852 38.234 23.4345C38.2713 23.8638 38.2526 24.3865 38.178 25.0025C38.122 25.6185 38.178 26.2532 38.346 26.9065C38.626 26.9438 38.9246 26.9718 39.242 26.9905C39.5593 27.0092 39.8673 26.9998 40.166 26.9625C40.4646 26.9252 40.7353 26.8412 40.978 26.7105ZM59.9497 36.3705C60.3604 37.0798 60.7057 37.8172 60.9857 38.5825H61.0137C60.3604 38.5825 59.6324 38.6105 58.8297 38.6665C58.0271 38.7038 57.2057 38.6945 56.3657 38.6385H56.3377C56.1511 38.2092 55.9177 37.6958 55.6377 37.0985C55.3577 36.5012 55.0497 35.8758 54.7137 35.2225C54.3777 34.5692 54.0137 33.9252 53.6217 33.2905C53.2297 32.6558 52.8377 32.0958 52.4457 31.6105L52.3897 31.5265C52.3337 31.9558 52.3057 32.4878 52.3057 33.1225C52.3057 33.7385 52.3151 34.3825 52.3337 35.0545C52.3711 35.7078 52.4084 36.3332 52.4457 36.9305C52.4831 37.5278 52.5111 38.0038 52.5297 38.3585C52.2124 38.4892 51.7924 38.5732 51.2697 38.6105C50.7657 38.6478 50.2617 38.6665 49.7577 38.6665C49.2537 38.6852 48.7964 38.6852 48.3857 38.6665C47.9937 38.6478 47.7511 38.6478 47.6577 38.6665C47.6951 38.6665 47.7231 38.4145 47.7417 37.9105C47.7604 37.3878 47.7697 36.7065 47.7697 35.8665C47.7697 35.0265 47.7697 34.0652 47.7697 32.9825C47.7697 31.8812 47.7604 30.7518 47.7417 29.5945C47.7417 28.4185 47.7231 27.2612 47.6857 26.1225C47.6671 24.9652 47.6484 23.9105 47.6297 22.9585C47.6111 21.9878 47.5831 21.1665 47.5457 20.4945C47.5271 19.8038 47.4991 19.3372 47.4617 19.0945C48.5071 18.9452 49.6551 18.8052 50.9057 18.6745C52.1564 18.5438 53.4631 18.5532 54.8257 18.7025C55.9271 18.7585 56.9164 19.0758 57.7937 19.6545C58.6711 20.2332 59.3524 20.9518 59.8377 21.8105C60.3231 22.6692 60.5751 23.6212 60.5937 24.6665C60.6311 25.6932 60.3604 26.6918 59.7817 27.6625C59.4271 28.3345 58.9511 28.8945 58.3537 29.3425C57.7751 29.7905 57.0377 30.0425 56.1417 30.0985H56.0297H56.0017V30.1265C56.3937 30.8172 56.8231 31.5078 57.2897 32.1985C57.7564 32.8705 58.2137 33.5518 58.6617 34.2425C59.1097 34.9332 59.5391 35.6425 59.9497 36.3705ZM53.4817 22.5945C52.8471 22.6132 52.2031 22.7532 51.5497 23.0145C51.5684 23.2572 51.5777 23.5372 51.5777 23.8545C51.5964 24.1532 51.6057 24.4612 51.6057 24.7785C51.6057 25.0958 51.6057 25.4038 51.6057 25.7025C51.6244 26.0012 51.6524 26.2532 51.6897 26.4585H51.7177C52.1471 26.4958 52.6137 26.5238 53.1177 26.5425C53.6217 26.5612 54.0977 26.5332 54.5457 26.4585C54.9004 26.3838 55.1711 26.2065 55.3577 25.9265C55.5631 25.6278 55.6844 25.3105 55.7217 24.9745C55.7591 24.6198 55.7217 24.2745 55.6097 23.9385C55.4977 23.5838 55.3111 23.3038 55.0497 23.0985C54.6391 22.7252 54.1164 22.5572 53.4817 22.5945ZM70.2979 34.8305C71.4926 34.8865 72.7246 34.8958 73.9939 34.8585V34.9145C74.0312 35.5118 74.0406 36.1372 74.0219 36.7905C74.0032 37.4252 73.9192 38.0225 73.7699 38.5825C71.8659 38.5638 69.9246 38.5918 67.9459 38.6665C65.9859 38.7225 64.1006 38.6758 62.2899 38.5265C62.2899 36.9025 62.2712 35.2972 62.2339 33.7105C62.1966 32.1052 62.1686 30.5092 62.1499 28.9225C62.1312 27.3358 62.1312 25.7492 62.1499 24.1625C62.1686 22.5758 62.2246 20.9798 62.3179 19.3745C63.0459 19.3372 63.8299 19.3092 64.6699 19.2905C65.5286 19.2532 66.3872 19.2252 67.2459 19.2065C68.1046 19.1878 68.9352 19.1692 69.7379 19.1505C70.5406 19.1318 71.2499 19.1225 71.8659 19.1225C72.4819 19.1225 72.9766 19.1318 73.3499 19.1505C73.7232 19.1692 73.9099 19.1878 73.9099 19.2065C74.0032 19.8598 74.0219 20.5225 73.9659 21.1945C73.9286 21.8665 73.9099 22.5292 73.9099 23.1825V23.2105C73.3126 23.3412 72.7059 23.4252 72.0899 23.4625C71.4926 23.4812 70.8859 23.4905 70.2699 23.4905C69.6539 23.4718 69.0379 23.4625 68.4219 23.4625C67.8059 23.4625 67.1899 23.4905 66.5739 23.5465H66.4899L66.4619 23.5745C66.4806 24.1158 66.4526 24.6758 66.3779 25.2545C66.3219 25.8145 66.3592 26.3465 66.4899 26.8505L66.5179 26.8785C67.0779 26.9158 67.6472 26.9345 68.2259 26.9345C68.8046 26.9345 69.3832 26.9438 69.9619 26.9625V26.9905C70.0552 27.6252 70.0832 28.2598 70.0459 28.8945C70.0086 29.5292 69.9992 30.1918 70.0179 30.8825C69.7379 30.9572 69.4206 31.0038 69.0659 31.0225C68.7112 31.0225 68.3659 31.0225 68.0299 31.0225C67.7126 31.0225 67.4232 31.0318 67.1619 31.0505C66.9006 31.0692 66.7232 31.1158 66.6299 31.1905C66.5366 31.7318 66.4992 32.3385 66.5179 33.0105C66.5552 33.6825 66.5926 34.2425 66.6299 34.6905L66.6579 34.7185C67.8899 34.7185 69.1032 34.7558 70.2979 34.8305ZM87.2784 35.6145C87.2784 35.8012 87.2877 35.9692 87.3064 36.1185C87.3437 36.7905 87.3624 37.3038 87.3624 37.6585C87.3624 37.9945 87.3344 38.2465 87.2784 38.4145C87.241 38.5638 87.1664 38.6478 87.0544 38.6665C86.9424 38.6665 86.7837 38.6665 86.5784 38.6665C86.373 38.6478 86.1024 38.6478 85.7664 38.6665C85.449 38.6852 84.8984 38.7038 84.1144 38.7225C83.349 38.7412 82.285 38.7505 80.9224 38.7505C79.5784 38.7505 77.777 38.7318 75.5184 38.6945V38.1905C75.5744 36.7905 75.621 35.5305 75.6584 34.4105C75.6957 33.2718 75.7144 32.2172 75.7144 31.2465C75.733 30.2572 75.7424 29.3052 75.7424 28.3905C75.7424 27.4758 75.733 26.5425 75.7144 25.5905C75.6957 24.6385 75.677 23.6305 75.6584 22.5665C75.6397 21.4838 75.621 20.2892 75.6024 18.9825C75.789 18.9078 76.0784 18.8518 76.4704 18.8145C76.8624 18.7585 77.2824 18.7305 77.7304 18.7305C78.1784 18.7305 78.617 18.7585 79.0464 18.8145C79.4757 18.8705 79.821 18.9545 80.0824 19.0665C80.045 20.2798 80.0264 21.5305 80.0264 22.8185C80.045 24.0878 80.0637 25.3665 80.0824 26.6545C80.101 27.9425 80.1104 29.2305 80.1104 30.5185C80.129 31.7878 80.129 33.0198 80.1104 34.2145V34.2425C80.241 34.2052 80.4837 34.1958 80.8384 34.2145C81.2117 34.2145 81.641 34.2238 82.1264 34.2425C82.6117 34.2612 83.125 34.2892 83.6664 34.3265C84.2264 34.3452 84.749 34.3638 85.2344 34.3825C85.7384 34.4012 86.177 34.4198 86.5504 34.4385C86.9424 34.4385 87.213 34.4292 87.3624 34.4105C87.3624 34.6158 87.353 34.8212 87.3344 35.0265C87.3157 35.2132 87.297 35.4092 87.2784 35.6145ZM100.185 35.6145C100.185 35.8012 100.194 35.9692 100.213 36.1185C100.25 36.7905 100.269 37.3038 100.269 37.6585C100.269 37.9945 100.241 38.2465 100.185 38.4145C100.147 38.5638 100.073 38.6478 99.9606 38.6665C99.8486 38.6665 99.69 38.6665 99.4846 38.6665C99.2793 38.6478 99.0086 38.6478 98.6726 38.6665C98.3553 38.6852 97.8046 38.7038 97.0206 38.7225C96.2553 38.7412 95.1913 38.7505 93.8286 38.7505C92.4846 38.7505 90.6833 38.7318 88.4246 38.6945V38.1905C88.4806 36.7905 88.5273 35.5305 88.5646 34.4105C88.602 33.2718 88.6206 32.2172 88.6206 31.2465C88.6393 30.2572 88.6486 29.3052 88.6486 28.3905C88.6486 27.4758 88.6393 26.5425 88.6206 25.5905C88.602 24.6385 88.5833 23.6305 88.5646 22.5665C88.546 21.4838 88.5273 20.2892 88.5086 18.9825C88.6953 18.9078 88.9846 18.8518 89.3766 18.8145C89.7686 18.7585 90.1886 18.7305 90.6366 18.7305C91.0846 18.7305 91.5233 18.7585 91.9526 18.8145C92.382 18.8705 92.7273 18.9545 92.9886 19.0665C92.9513 20.2798 92.9326 21.5305 92.9326 22.8185C92.9513 24.0878 92.97 25.3665 92.9886 26.6545C93.0073 27.9425 93.0166 29.2305 93.0166 30.5185C93.0353 31.7878 93.0353 33.0198 93.0166 34.2145V34.2425C93.1473 34.2052 93.39 34.1958 93.7446 34.2145C94.118 34.2145 94.5473 34.2238 95.0326 34.2425C95.518 34.2612 96.0313 34.2892 96.5726 34.3265C97.1326 34.3452 97.6553 34.3638 98.1406 34.3825C98.6446 34.4012 99.0833 34.4198 99.4566 34.4385C99.8486 34.4385 100.119 34.4292 100.269 34.4105C100.269 34.6158 100.259 34.8212 100.241 35.0265C100.222 35.2132 100.203 35.4092 100.185 35.6145ZM110.151 27.5505C110.282 28.0918 110.384 28.5212 110.459 28.8385L112.559 38.6385V38.6665C111.999 38.7785 111.383 38.8158 110.711 38.7785C110.039 38.7598 109.404 38.6852 108.807 38.5545H108.779C108.667 38.2558 108.555 37.9012 108.443 37.4905C108.35 37.0798 108.247 36.6598 108.135 36.2305C108.042 35.8012 107.939 35.3905 107.827 34.9985C107.715 34.6065 107.594 34.2705 107.463 33.9905C107.22 33.9532 107.034 33.9345 106.903 33.9345C106.772 33.9345 106.651 33.9345 106.539 33.9345C106.446 33.9345 106.334 33.9438 106.203 33.9625C106.091 33.9625 105.932 33.9625 105.727 33.9625C105.596 34.2612 105.484 34.6158 105.391 35.0265C105.316 35.4185 105.232 35.8385 105.139 36.2865C105.064 36.7158 104.98 37.1358 104.887 37.5465C104.794 37.9572 104.663 38.3212 104.495 38.6385C104.476 38.6385 104.458 38.6478 104.439 38.6665C104.439 38.6665 104.43 38.6665 104.411 38.6665C104.262 38.7038 103.888 38.7038 103.291 38.6665C102.694 38.6292 101.76 38.6198 100.491 38.6385C100.472 38.6385 100.454 38.6292 100.435 38.6105C100.472 38.4798 100.538 38.1158 100.631 37.5185C100.724 36.9212 100.855 36.1465 101.023 35.1945C101.191 34.2425 101.387 33.1505 101.611 31.9185C101.854 30.6678 102.134 29.3425 102.451 27.9425C102.768 26.5425 103.114 25.0865 103.487 23.5745C103.86 22.0625 104.271 20.5598 104.719 19.0665C104.85 19.0478 104.99 19.0385 105.139 19.0385C105.288 19.0385 105.484 19.0385 105.727 19.0385C105.97 19.0385 106.278 19.0385 106.651 19.0385C107.043 19.0198 107.547 18.9825 108.163 18.9265C108.219 19.1692 108.303 19.5425 108.415 20.0465C108.546 20.5318 108.676 21.0918 108.807 21.7265C108.956 22.3425 109.106 23.0052 109.255 23.7145C109.423 24.4238 109.582 25.1052 109.731 25.7585C109.88 26.4118 110.02 27.0092 110.151 27.5505ZM106.539 30.6865C106.894 30.6678 107.248 30.6585 107.603 30.6585C107.416 29.0532 107.248 27.8025 107.099 26.9065C106.968 26.0105 106.847 25.4038 106.735 25.0865C106.642 24.7692 106.539 24.7038 106.427 24.8905C106.334 25.0585 106.24 25.4132 106.147 25.9545C106.072 26.4958 105.979 27.1772 105.867 27.9985C105.774 28.8198 105.662 29.7065 105.531 30.6585C105.848 30.6772 106.184 30.6865 106.539 30.6865Z" fill="white"/>
<path d="M15.9678 0.5C19.8782 0.5 23.9146 2.08148 26.9746 4.62793C30.0348 7.17455 32.1668 10.7294 32.167 14.6982C32.167 15.877 31.2109 16.8329 30.0322 16.833H16.833V35C16.833 36.105 16.3946 37.1649 15.6133 37.9463C14.832 38.7276 13.7719 39.1669 12.667 39.167C12.1396 39.167 11.1295 39.0645 10.168 38.8779C9.68495 38.7842 9.19881 38.6666 8.78223 38.5234C8.38559 38.3871 7.97881 38.2043 7.7207 37.9463C6.9393 37.1649 6.5 36.1051 6.5 35V24.667C6.5 24.2692 6.65825 23.8877 6.93945 23.6064C7.22076 23.3251 7.60218 23.167 8 23.167C8.39782 23.167 8.77924 23.3251 9.06055 23.6064C9.34175 23.8877 9.5 24.2692 9.5 24.667V35C9.5 35.2483 9.55714 35.3482 9.83594 35.792C10.188 35.9497 10.7527 36.052 11.3398 36.1074C11.9629 36.1662 12.5197 36.167 12.667 36.167C12.9761 36.1669 13.2725 36.0437 13.4912 35.8252C13.71 35.6064 13.833 35.3094 13.833 35V16.833H2.63477C1.45596 16.833 0.5 15.8771 0.5 14.6982C0.50023 6.8571 6.8571 0.50023 14.6982 0.5H15.9678ZM20.7109 4.55371C21.0821 5.27765 21.3963 6.04821 21.6641 6.82031C22.5005 9.23382 22.9667 11.9127 23.2188 13.833H29.0967C28.9126 12.9599 28.3533 12.057 27.6113 11.125C27.1735 10.575 26.6926 10.0376 26.2197 9.50684C25.752 8.98186 25.289 8.45947 24.9111 7.95801C23.8061 6.49129 22.3612 5.32625 20.7109 4.55371ZM15.333 3.5C14.7304 3.5001 14.138 3.78914 13.5146 4.53613C12.9531 5.20826 12.4525 6.16132 12.0186 7.30273L11.8359 7.80273C11.1423 9.8027 10.7227 12.0663 10.4756 13.833H20.1914C19.9614 12.1896 19.5815 10.1145 18.9707 8.22266L18.8301 7.80273C18.3562 6.43885 17.794 5.30421 17.1523 4.53613C16.5288 3.78889 15.9357 3.5 15.333 3.5ZM9.95508 4.55371C8.30504 5.32624 6.86081 6.49147 5.75586 7.95801C4.46806 9.66725 3.70047 11.7065 3.53516 13.833H7.44727C7.69914 11.9129 8.16427 9.23397 9.00195 6.82031C9.26964 6.0483 9.58397 5.27758 9.95508 4.55371Z" fill="white" stroke="white"/>
</svg>
