<svg width="473" height="468" viewBox="0 0 473 468" fill="none" xmlns="http://www.w3.org/2000/svg">
<g clip-path="url(#clip0_71_523)">
<path d="M473 234C473 363.233 368.307 468 239.164 468C232.344 468 225.598 467.711 218.928 467.134C200.165 465.528 182.035 461.695 164.801 455.917C111.758 438.126 67.1981 401.821 38.7867 354.676C17.5472 319.438 5.3288 278.146 5.3288 234C5.3288 104.767 110.022 0 239.164 0C368.307 0 473 104.767 473 234Z" fill="#090814"/>
<path opacity="0.2" d="M473 234C473 363.233 368.307 468 239.164 468C232.344 468 225.598 467.711 218.928 467.134C200.165 465.528 182.035 461.695 164.801 455.917C111.758 438.126 67.1981 401.821 38.7867 354.676C17.5472 319.438 5.3288 278.146 5.3288 234C5.3288 104.767 110.022 0 239.164 0C368.307 0 473 104.767 473 234Z" fill="#1B2B85"/>
<path d="M235.403 334.689C277.47 334.689 311.572 300.563 311.572 258.466C311.572 216.37 277.47 182.244 235.403 182.244C193.336 182.244 159.234 216.37 159.234 258.466C159.234 300.563 193.336 334.689 235.403 334.689Z" fill="#1B2B85"/>
<path d="M231.825 212.722C238.301 212.427 245.273 218.297 244.222 225.127C243.433 230.252 233.939 236.499 225.697 231.399C217.789 226.506 219.966 213.262 231.825 212.722Z" fill="white"/>
<path d="M199.512 220.527C202.339 220.271 203.625 223.581 202.158 226.242C201.215 227.953 193.07 232.548 192.13 228.751C191.373 225.695 196.989 220.756 199.512 220.527Z" fill="white"/>
<path d="M277.789 223.594C285.111 221.801 291.339 241.869 280.574 235.859C274.633 232.542 275.037 224.267 277.789 223.594Z" fill="white"/>
<path d="M46.5486 218.162C48.0957 217.92 50.2257 223.549 49.9775 224.419C49.1968 227.155 16.8805 240.351 11.6543 240.566C15.4194 238.03 39.9125 220.763 41.7077 220.584C46.8154 220.074 44.1708 225.415 45.3384 225.832C48.4076 226.927 47.8338 220.732 46.7503 219.978C45.3132 218.978 38.9804 221.61 46.5486 218.162Z" fill="#FF6363"/>
<path d="M162.123 149.535C158.476 150.782 140.27 159.264 135.7 161.646C122.559 168.493 108.083 178.468 94.9568 185.867C83.7125 187.733 50.857 185.496 48.5656 185.867C47.6312 186.018 38.621 190.484 38.6822 191.317C46.4971 194.916 53.8684 199.655 61.6761 203.629C64.7485 205.192 67.7418 203.883 59.4574 211.299C56.6522 213.81 51.8712 216.423 51.1877 216.95C50.6256 217.384 49.7612 217.197 49.9775 218.161C54.6911 223.307 52.9008 227.92 58.6506 227.043C61.3052 226.638 62.645 222.321 66.1135 227.446C67.8083 222.35 69.5469 217.188 70.551 211.904C95.3969 194.959 88.9924 201.449 80.2326 223.813C96.3409 215.988 93.5945 210.554 95.3602 208.473L163.132 166.894C173.192 159.765 176.66 154.069 184.31 144.893C176.912 146.217 169.218 147.11 162.123 149.535ZM104.437 183.445C110.147 179.826 115.996 176.439 121.783 172.949C132.094 183.148 106.417 196.812 104.437 183.445Z" fill="#D6D6E3"/>
<path d="M80.2326 223.813L69.9458 242.383C47.9887 253.68 26.9674 266.692 5.4016 278.714L4.3931 278.109C21.5737 267.079 40.5439 258.703 57.4404 247.227C57.7476 247.018 58.0633 247.425 58.2472 247.631C60.2705 246.177 60.3706 244.572 60.4659 244.401C61.6542 242.268 62.0724 240.176 62.8863 237.942C64.134 234.518 64.9637 230.904 66.1135 227.446C67.8082 222.35 69.5468 217.188 70.5509 211.904C95.3968 194.959 88.9924 201.449 80.2326 223.813Z" fill="#D6D6E3"/>
<path d="M104.437 183.445C110.147 179.826 115.996 176.439 121.783 172.949C132.094 183.148 106.417 196.812 104.437 183.445Z" fill="#090814"/>
<path d="M9.15351e-05 213.432C0.000401315 213.032 -0.000223585 212.622 9.15351e-05 212.221C6.66388 209.089 30.3107 194.214 32.8773 193.248C33.6474 192.958 34.923 192.284 35.096 193.45C35.3926 195.448 3.44018 210.726 9.15351e-05 213.432Z" fill="#FFFEFF"/>
<path d="M107.507 156.109C109.263 155.955 103.9 159.222 101.052 160.953C89.1763 168.174 76.7471 174.696 64.5443 181.339C78.1132 171.728 93.3231 164.757 107.507 156.109Z" fill="#FFFEFF"/>
<path d="M90.1603 256.223C91.5204 256.181 89.1748 257.691 88.9501 257.838C75.816 266.42 61.1813 273.199 47.6015 281.05C61.0656 271.619 76.0262 264.578 90.1603 256.223Z" fill="#C8C8C8"/>
<path d="M124.853 206.166C125.106 206.128 125.379 206.119 125.458 206.368C111.676 214.818 97.4761 223.027 83.1008 230.589C87.8502 227.209 122.46 206.527 124.853 206.166Z" fill="#FFFEFF"/>
<path d="M357.714 105.634C347.547 116.389 334.906 127.441 321.779 134.346C297.492 147.123 284.683 141.792 303.672 117.76C296.944 98.6117 310.835 79.6353 331.25 80.8239C328.613 81.1228 328.078 82.3663 325.958 83.3328C318.561 86.7034 313.712 85.9484 308.408 93.7864C307.611 94.9633 306.204 97.2671 306.179 98.6647C304.564 99.9656 304.585 102.905 304.508 104.797C304.135 113.962 307.795 122.368 313.84 129.05C326.736 125.466 348.976 107.255 355.207 95.8771C359.389 88.2405 357.339 84.5557 348.521 87.2355C348.353 87.0737 346.689 87.2509 347.407 85.5629C349.235 85.4291 356.051 81.6389 360.36 84.1691C365.572 87.2284 359.048 96.0224 356.6 99.2222C348.324 110.04 328.484 126.415 315.929 131.559C310.825 133.65 298.769 138.041 300.887 127.795C301.563 124.523 306.095 119.42 304.09 119.293C303.405 119.25 298.02 128.777 297.822 131.419C297.062 141.592 312.067 135.037 316.765 132.952C331.18 126.555 347.22 113.407 357.157 101.174C370.213 85.0984 368.678 75.8239 346.293 85.0054H344.9C344.901 84.8517 344.146 84.4782 344.064 84.4478C374.371 70.7282 376.371 84.6912 357.714 105.634Z" fill="#FFFEFF"/>
<path d="M322.553 252.122C291.513 284.957 252.92 318.698 212.844 339.781C138.698 378.787 99.5924 362.512 157.565 289.143C137.024 230.684 173.39 178.615 235.716 182.244C227.666 183.157 232.076 181.088 225.601 184.038C203.019 194.329 188.217 192.024 172.023 215.953C169.591 219.546 165.295 226.579 165.219 230.846C162.369 234.941 160.352 243.792 160.116 249.569C158.977 277.547 170.152 303.213 188.607 323.611C227.978 312.67 295.876 257.072 314.899 222.336C327.666 199.021 321.407 187.772 294.488 195.953C293.975 195.459 288.894 196 291.086 190.847C296.667 190.439 317.475 178.867 330.632 186.592C346.542 195.932 326.624 222.779 319.151 232.548C293.885 265.576 233.316 315.565 194.985 331.27C179.403 337.654 142.595 351.062 149.061 319.781C151.125 309.792 164.962 294.212 158.841 293.824C156.749 293.691 140.309 322.779 139.706 330.845C137.383 361.902 183.194 341.891 197.536 335.525C241.545 315.993 290.516 275.855 320.852 238.506C360.713 189.429 356.024 161.114 287.684 189.145H283.432C283.436 188.676 281.129 187.535 280.881 187.443C373.405 145.557 379.511 188.186 322.553 252.122Z" fill="#FFFEFF"/>
<path d="M344.064 84.4478C344.146 84.4782 344.901 84.8517 344.9 85.0054C335.743 98.1093 320.755 106.024 304.508 104.797C304.585 102.905 304.564 99.9656 306.179 98.6647C308.346 96.9191 310.768 98.7035 316.626 94.4833C319.593 92.3454 324.589 86.898 325.958 83.3328C328.079 82.3663 328.613 81.1228 331.25 80.8239C338.728 81.2593 339.596 82.7778 344.064 84.4478Z" fill="#D6D6E3"/>
<path d="M321.779 134.346C334.906 127.441 347.547 116.389 357.714 105.634C358.19 124.339 340.001 139.806 321.779 134.346Z" fill="#D6D6E3"/>
<path d="M346.293 85.0054C346.464 85.3585 347.048 85.5892 347.407 85.5629C346.689 87.2509 348.353 87.0737 348.521 87.2355C351.163 89.777 353.48 92.6403 355.207 95.8771C348.976 107.255 326.736 125.466 313.84 129.05C307.795 122.368 304.135 113.962 304.508 104.797C320.755 106.024 335.743 98.1093 344.9 85.0054L346.293 85.0054Z" fill="#D6D6E3"/>
<path d="M325.958 83.3328C324.589 86.898 319.593 92.3454 316.626 94.4833C310.768 98.7035 308.346 96.9191 306.179 98.6647C306.204 97.2671 307.611 94.9633 308.408 93.7864C313.712 85.9484 318.561 86.7034 325.958 83.3328Z" fill="#D6D6E3"/>
<path d="M234.44 102.565L235.136 108.001C236.34 109.898 245.783 108.585 235.276 110.091L234.161 115.667L233.465 110.51C227.114 108.154 227.598 110.311 233.465 108.001L234.44 102.565Z" fill="#F0F0F0"/>
<path d="M184.287 78.7257L184.984 84.1615C186.188 86.059 195.631 84.7457 185.123 86.2522L184.009 91.8275L183.312 86.6704C176.961 84.3147 177.446 86.4719 183.312 84.1615L184.287 78.7257Z" fill="#F0F0F0"/>
<path d="M354.806 300.806L355.502 306.242C356.706 308.139 366.149 306.826 355.641 308.333L354.527 313.908L353.831 308.751C347.48 306.395 347.964 308.552 353.831 306.242L354.806 300.806Z" fill="#F0F0F0"/>
<path d="M119.716 271.948L120.413 277.384C121.617 279.282 131.06 277.968 120.552 279.475L119.438 285.05L118.741 279.893C112.39 277.537 112.874 279.694 118.741 277.384L119.716 271.948Z" fill="#F0F0F0"/>
<path d="M396.08 175.337L397.471 186.191C399.874 189.98 418.731 187.358 397.749 190.366L395.524 201.499L394.133 191.201C381.451 186.497 382.418 190.805 394.133 186.191L396.08 175.337Z" fill="#F0F0F0"/>
<path d="M264.43 383.616L265.82 394.47C268.224 398.259 287.081 395.637 266.099 398.645L263.874 409.778L262.483 399.48C249.801 394.776 250.768 399.084 262.483 394.47L264.43 383.616Z" fill="#F0F0F0"/>
</g>
<defs>
<clipPath id="clip0_71_523">
<rect width="473" height="468" fill="white"/>
</clipPath>
</defs>
</svg>
